<mxfile host="app.diagrams.net" modified="2021-01-17T22:57:26.536Z" agent="5.0 (Windows NT 10.0; Win64; x64) AppleWebKit/537.36 (KHTML, like Gecko) Chrome/87.0.4280.141 Safari/537.36 Edg/87.0.664.75" etag="p28y0B8i_ED6BEDaPwNI" version="14.2.4" type="github">
  <diagram id="prtHgNgQTEPvFCAcTncT" name="Page-1">
    <mxGraphModel dx="3437" dy="1845" grid="1" gridSize="10" guides="1" tooltips="1" connect="1" arrows="1" fold="1" page="1" pageScale="1" pageWidth="3300" pageHeight="2339" math="0" shadow="0">
      <root>
        <mxCell id="0" />
        <mxCell id="1" parent="0" />
        <mxCell id="LWUIOP7juYv8fSBDD6Rb-6" style="edgeStyle=elbowEdgeStyle;rounded=1;orthogonalLoop=1;jettySize=auto;html=1;endArrow=none;endFill=0;startArrow=none;startFill=0;elbow=vertical;" parent="1" source="LWUIOP7juYv8fSBDD6Rb-1" target="LWUIOP7juYv8fSBDD6Rb-2" edge="1">
          <mxGeometry relative="1" as="geometry" />
        </mxCell>
        <mxCell id="LWUIOP7juYv8fSBDD6Rb-7" style="edgeStyle=elbowEdgeStyle;rounded=1;orthogonalLoop=1;jettySize=auto;html=1;entryX=0.5;entryY=0;entryDx=0;entryDy=0;endArrow=none;endFill=0;startArrow=none;startFill=0;elbow=vertical;" parent="1" source="LWUIOP7juYv8fSBDD6Rb-1" target="LWUIOP7juYv8fSBDD6Rb-3" edge="1">
          <mxGeometry relative="1" as="geometry" />
        </mxCell>
        <mxCell id="LWUIOP7juYv8fSBDD6Rb-9" style="edgeStyle=elbowEdgeStyle;rounded=1;orthogonalLoop=1;jettySize=auto;html=1;endArrow=none;endFill=0;startArrow=none;startFill=0;elbow=vertical;" parent="1" source="LWUIOP7juYv8fSBDD6Rb-1" target="LWUIOP7juYv8fSBDD6Rb-5" edge="1">
          <mxGeometry relative="1" as="geometry">
            <Array as="points">
              <mxPoint x="2480" y="360" />
            </Array>
          </mxGeometry>
        </mxCell>
        <mxCell id="LWUIOP7juYv8fSBDD6Rb-11" style="edgeStyle=elbowEdgeStyle;rounded=1;orthogonalLoop=1;jettySize=auto;html=1;endArrow=none;endFill=0;startArrow=none;startFill=0;elbow=vertical;exitX=0.5;exitY=1;exitDx=0;exitDy=0;" parent="1" source="LWUIOP7juYv8fSBDD6Rb-1" target="LWUIOP7juYv8fSBDD6Rb-4" edge="1">
          <mxGeometry relative="1" as="geometry">
            <Array as="points">
              <mxPoint x="1650" y="360" />
              <mxPoint x="1623" y="360" />
            </Array>
          </mxGeometry>
        </mxCell>
        <mxCell id="LWUIOP7juYv8fSBDD6Rb-1" value="&lt;h1&gt;Medienlandschaft Schweiz&lt;/h1&gt;" style="rounded=0;whiteSpace=wrap;html=1;strokeWidth=4;" parent="1" vertex="1">
          <mxGeometry x="1510" y="180" width="280" height="80" as="geometry" />
        </mxCell>
        <mxCell id="LWUIOP7juYv8fSBDD6Rb-2" value="&lt;font style=&quot;font-size: 12px&quot;&gt;TxGroup&lt;/font&gt;" style="rounded=1;whiteSpace=wrap;html=1;strokeWidth=2;fillColor=#cce5ff;strokeColor=#36393d;" parent="1" vertex="1">
          <mxGeometry x="60" y="400" width="160" height="40" as="geometry" />
        </mxCell>
        <mxCell id="LWUIOP7juYv8fSBDD6Rb-3" value="Ringier Axel Springer" style="rounded=1;whiteSpace=wrap;html=1;strokeWidth=2;fillColor=#ffcccc;strokeColor=#36393d;" parent="1" vertex="1">
          <mxGeometry x="720" y="400" width="160" height="40" as="geometry" />
        </mxCell>
        <mxCell id="LWUIOP7juYv8fSBDD6Rb-14" style="orthogonalLoop=1;jettySize=auto;elbow=vertical;html=1;startFill=0;endArrow=none;endFill=0;edgeStyle=orthogonalEdgeStyle;curved=1;" parent="1" source="LWUIOP7juYv8fSBDD6Rb-4" target="LWUIOP7juYv8fSBDD6Rb-13" edge="1">
          <mxGeometry relative="1" as="geometry" />
        </mxCell>
        <mxCell id="hYy_9Ryrg1myL5dYlOFF-82" value="  50%  " style="edgeLabel;align=center;verticalAlign=middle;resizable=0;points=[];fontSize=20;labelBorderColor=#000000;" parent="LWUIOP7juYv8fSBDD6Rb-14" vertex="1" connectable="0">
          <mxGeometry x="0.0052" y="-7" relative="1" as="geometry">
            <mxPoint x="-1" as="offset" />
          </mxGeometry>
        </mxCell>
        <mxCell id="hYy_9Ryrg1myL5dYlOFF-19" style="edgeStyle=elbowEdgeStyle;orthogonalLoop=1;jettySize=auto;elbow=vertical;html=1;endArrow=none;endFill=0;" parent="1" source="LWUIOP7juYv8fSBDD6Rb-4" target="hYy_9Ryrg1myL5dYlOFF-12" edge="1">
          <mxGeometry relative="1" as="geometry">
            <Array as="points">
              <mxPoint x="1650" y="550" />
              <mxPoint x="1439" y="550" />
              <mxPoint x="1450" y="550" />
              <mxPoint x="1400" y="550" />
              <mxPoint x="1460" y="550" />
            </Array>
          </mxGeometry>
        </mxCell>
        <mxCell id="hYy_9Ryrg1myL5dYlOFF-30" style="edgeStyle=elbowEdgeStyle;orthogonalLoop=1;jettySize=auto;elbow=vertical;html=1;entryX=0.5;entryY=0;entryDx=0;entryDy=0;endArrow=none;endFill=0;" parent="1" source="LWUIOP7juYv8fSBDD6Rb-4" target="hYy_9Ryrg1myL5dYlOFF-28" edge="1">
          <mxGeometry relative="1" as="geometry">
            <Array as="points">
              <mxPoint x="1648" y="550" />
            </Array>
          </mxGeometry>
        </mxCell>
        <mxCell id="hYy_9Ryrg1myL5dYlOFF-31" style="edgeStyle=elbowEdgeStyle;orthogonalLoop=1;jettySize=auto;elbow=vertical;html=1;endArrow=none;endFill=0;" parent="1" source="LWUIOP7juYv8fSBDD6Rb-4" target="hYy_9Ryrg1myL5dYlOFF-29" edge="1">
          <mxGeometry relative="1" as="geometry">
            <Array as="points">
              <mxPoint x="2087" y="550" />
              <mxPoint x="2023" y="550" />
              <mxPoint x="1960" y="550" />
            </Array>
          </mxGeometry>
        </mxCell>
        <mxCell id="hYy_9Ryrg1myL5dYlOFF-79" style="edgeStyle=orthogonalEdgeStyle;orthogonalLoop=1;jettySize=auto;html=1;entryX=0.5;entryY=0;entryDx=0;entryDy=0;endArrow=none;endFill=0;" parent="1" target="hYy_9Ryrg1myL5dYlOFF-74" edge="1">
          <mxGeometry relative="1" as="geometry">
            <mxPoint x="1648" y="465" as="sourcePoint" />
            <mxPoint x="2346" y="615" as="targetPoint" />
            <Array as="points">
              <mxPoint x="1648" y="550" />
              <mxPoint x="1920" y="550" />
              <mxPoint x="1920" y="620" />
            </Array>
          </mxGeometry>
        </mxCell>
        <mxCell id="hYy_9Ryrg1myL5dYlOFF-96" style="edgeStyle=elbowEdgeStyle;orthogonalLoop=1;jettySize=auto;elbow=vertical;html=1;entryX=0.5;entryY=0;entryDx=0;entryDy=0;endArrow=none;endFill=0;fontSize=20;" parent="1" source="LWUIOP7juYv8fSBDD6Rb-4" target="hYy_9Ryrg1myL5dYlOFF-88" edge="1">
          <mxGeometry relative="1" as="geometry">
            <Array as="points">
              <mxPoint x="1648" y="550" />
            </Array>
          </mxGeometry>
        </mxCell>
        <mxCell id="LWUIOP7juYv8fSBDD6Rb-4" value="&lt;font style=&quot;font-size: 12px&quot; color=&quot;#ffffff&quot;&gt;NZZ Mediengruppe&lt;/font&gt;" style="rounded=1;whiteSpace=wrap;html=1;strokeWidth=2;fillColor=#575757;" parent="1" vertex="1">
          <mxGeometry x="1568" y="430" width="160" height="40" as="geometry" />
        </mxCell>
        <mxCell id="LWUIOP7juYv8fSBDD6Rb-15" style="orthogonalLoop=1;jettySize=auto;html=1;startFill=0;endArrow=none;endFill=0;edgeStyle=orthogonalEdgeStyle;curved=1;" parent="1" source="LWUIOP7juYv8fSBDD6Rb-5" target="LWUIOP7juYv8fSBDD6Rb-13" edge="1">
          <mxGeometry relative="1" as="geometry" />
        </mxCell>
        <mxCell id="hYy_9Ryrg1myL5dYlOFF-83" value="  50%  " style="edgeLabel;align=center;verticalAlign=middle;resizable=0;points=[];fontSize=20;labelBorderColor=#000000;" parent="LWUIOP7juYv8fSBDD6Rb-15" vertex="1" connectable="0">
          <mxGeometry x="-0.2035" y="8" relative="1" as="geometry">
            <mxPoint as="offset" />
          </mxGeometry>
        </mxCell>
        <mxCell id="LWUIOP7juYv8fSBDD6Rb-5" value="&lt;font style=&quot;font-size: 12px&quot;&gt;AZ Medien&lt;br&gt;&lt;/font&gt;" style="rounded=1;whiteSpace=wrap;html=1;strokeWidth=2;fillColor=#ffff88;strokeColor=#36393d;" parent="1" vertex="1">
          <mxGeometry x="3660" y="430" width="160" height="40" as="geometry" />
        </mxCell>
        <mxCell id="hYy_9Ryrg1myL5dYlOFF-100" style="edgeStyle=elbowEdgeStyle;orthogonalLoop=1;jettySize=auto;elbow=vertical;html=1;endArrow=none;endFill=0;fontSize=20;" parent="1" source="LWUIOP7juYv8fSBDD6Rb-13" target="hYy_9Ryrg1myL5dYlOFF-99" edge="1">
          <mxGeometry relative="1" as="geometry">
            <Array as="points">
              <mxPoint x="2990" y="640" />
              <mxPoint x="2890" y="640" />
            </Array>
          </mxGeometry>
        </mxCell>
        <mxCell id="hYy_9Ryrg1myL5dYlOFF-101" style="edgeStyle=elbowEdgeStyle;orthogonalLoop=1;jettySize=auto;elbow=vertical;html=1;entryX=0.5;entryY=0;entryDx=0;entryDy=0;endArrow=none;endFill=0;fontSize=20;exitX=0.5;exitY=1;exitDx=0;exitDy=0;" parent="1" source="LWUIOP7juYv8fSBDD6Rb-13" target="hYy_9Ryrg1myL5dYlOFF-97" edge="1">
          <mxGeometry relative="1" as="geometry">
            <mxPoint x="2990" y="585" as="sourcePoint" />
            <mxPoint x="2850" y="938" as="targetPoint" />
            <Array as="points">
              <mxPoint x="2990" y="640" />
              <mxPoint x="2990" y="635" />
              <mxPoint x="2990" y="635" />
            </Array>
          </mxGeometry>
        </mxCell>
        <mxCell id="hYy_9Ryrg1myL5dYlOFF-186" style="edgeStyle=elbowEdgeStyle;orthogonalLoop=1;jettySize=auto;html=1;endArrow=none;endFill=0;fontSize=10;elbow=vertical;" parent="1" source="LWUIOP7juYv8fSBDD6Rb-13" target="hYy_9Ryrg1myL5dYlOFF-185" edge="1">
          <mxGeometry relative="1" as="geometry">
            <Array as="points">
              <mxPoint x="2990" y="640" />
            </Array>
          </mxGeometry>
        </mxCell>
        <mxCell id="hYy_9Ryrg1myL5dYlOFF-187" style="edgeStyle=elbowEdgeStyle;orthogonalLoop=1;jettySize=auto;elbow=vertical;html=1;endArrow=none;endFill=0;fontSize=10;" parent="1" source="LWUIOP7juYv8fSBDD6Rb-13" target="hYy_9Ryrg1myL5dYlOFF-84" edge="1">
          <mxGeometry relative="1" as="geometry">
            <Array as="points">
              <mxPoint x="2990" y="640" />
            </Array>
          </mxGeometry>
        </mxCell>
        <mxCell id="hYy_9Ryrg1myL5dYlOFF-215" style="edgeStyle=elbowEdgeStyle;orthogonalLoop=1;jettySize=auto;elbow=vertical;html=1;entryX=0.5;entryY=0;entryDx=0;entryDy=0;endArrow=none;endFill=0;fontSize=10;" parent="1" source="LWUIOP7juYv8fSBDD6Rb-13" target="hYy_9Ryrg1myL5dYlOFF-200" edge="1">
          <mxGeometry relative="1" as="geometry">
            <Array as="points">
              <mxPoint x="2990" y="640" />
              <mxPoint x="2990" y="635" />
            </Array>
          </mxGeometry>
        </mxCell>
        <mxCell id="hYy_9Ryrg1myL5dYlOFF-232" style="edgeStyle=elbowEdgeStyle;orthogonalLoop=1;jettySize=auto;elbow=vertical;html=1;entryX=0.5;entryY=0;entryDx=0;entryDy=0;endArrow=none;endFill=0;fontSize=10;" parent="1" source="LWUIOP7juYv8fSBDD6Rb-13" target="hYy_9Ryrg1myL5dYlOFF-228" edge="1">
          <mxGeometry relative="1" as="geometry">
            <Array as="points">
              <mxPoint x="2990" y="640" />
            </Array>
          </mxGeometry>
        </mxCell>
        <mxCell id="hYy_9Ryrg1myL5dYlOFF-243" style="edgeStyle=elbowEdgeStyle;orthogonalLoop=1;jettySize=auto;elbow=vertical;html=1;entryX=0.5;entryY=0;entryDx=0;entryDy=0;endArrow=none;endFill=0;fontSize=10;" parent="1" source="LWUIOP7juYv8fSBDD6Rb-13" target="hYy_9Ryrg1myL5dYlOFF-236" edge="1">
          <mxGeometry relative="1" as="geometry">
            <Array as="points">
              <mxPoint x="3380" y="640" />
            </Array>
          </mxGeometry>
        </mxCell>
        <mxCell id="LWUIOP7juYv8fSBDD6Rb-13" value="&lt;font style=&quot;font-size: 12px&quot;&gt;CH Media&lt;br&gt;&lt;/font&gt;" style="rounded=1;whiteSpace=wrap;html=1;strokeWidth=2;gradientDirection=east;fillColor=#f8cecc;strokeColor=#b85450;" parent="1" vertex="1">
          <mxGeometry x="2910" y="550" width="160" height="40" as="geometry" />
        </mxCell>
        <mxCell id="hYy_9Ryrg1myL5dYlOFF-10" style="edgeStyle=elbowEdgeStyle;rounded=1;orthogonalLoop=1;jettySize=auto;html=1;endArrow=none;endFill=0;elbow=vertical;" parent="1" source="hYy_9Ryrg1myL5dYlOFF-12" target="hYy_9Ryrg1myL5dYlOFF-13" edge="1">
          <mxGeometry relative="1" as="geometry">
            <Array as="points">
              <mxPoint x="1568" y="690" />
              <mxPoint x="1568" y="680" />
              <mxPoint x="1568" y="680" />
              <mxPoint x="1536" y="690" />
            </Array>
          </mxGeometry>
        </mxCell>
        <mxCell id="hYy_9Ryrg1myL5dYlOFF-11" style="edgeStyle=elbowEdgeStyle;orthogonalLoop=1;jettySize=auto;elbow=vertical;html=1;endArrow=none;endFill=0;" parent="1" source="hYy_9Ryrg1myL5dYlOFF-12" target="hYy_9Ryrg1myL5dYlOFF-14" edge="1">
          <mxGeometry relative="1" as="geometry">
            <Array as="points">
              <mxPoint x="1568" y="690" />
              <mxPoint x="1568" y="680" />
              <mxPoint x="1385" y="680" />
            </Array>
          </mxGeometry>
        </mxCell>
        <mxCell id="hYy_9Ryrg1myL5dYlOFF-12" value="Zeitungen" style="rounded=1;whiteSpace=wrap;html=1;strokeWidth=1;shadow=0;sketch=1;glass=1;dashed=1;strokeColor=#5E5E5E;" parent="1" vertex="1">
          <mxGeometry x="1488" y="610" width="160" height="40" as="geometry" />
        </mxCell>
        <mxCell id="hYy_9Ryrg1myL5dYlOFF-13" value="NZZ" style="rounded=1;whiteSpace=wrap;html=1;" parent="1" vertex="1">
          <mxGeometry x="1590" y="739" width="98" height="40" as="geometry" />
        </mxCell>
        <mxCell id="hYy_9Ryrg1myL5dYlOFF-14" value="NZZaS" style="rounded=1;whiteSpace=wrap;html=1;" parent="1" vertex="1">
          <mxGeometry x="1460" y="739" width="98" height="40" as="geometry" />
        </mxCell>
        <mxCell id="hYy_9Ryrg1myL5dYlOFF-15" value="NZZ Folio" style="rounded=1;whiteSpace=wrap;html=1;" parent="1" vertex="1">
          <mxGeometry x="1360" y="994" width="98" height="40" as="geometry" />
        </mxCell>
        <mxCell id="hYy_9Ryrg1myL5dYlOFF-16" value="Residence - Magazin" style="rounded=1;whiteSpace=wrap;html=1;" parent="1" vertex="1">
          <mxGeometry x="1300" y="944" width="98" height="40" as="geometry" />
        </mxCell>
        <mxCell id="hYy_9Ryrg1myL5dYlOFF-17" value="NZZ Geschichte" style="rounded=1;whiteSpace=wrap;html=1;" parent="1" vertex="1">
          <mxGeometry x="1420" y="944" width="98" height="40" as="geometry" />
        </mxCell>
        <mxCell id="hYy_9Ryrg1myL5dYlOFF-18" value="NZZ Bellevue" style="rounded=1;whiteSpace=wrap;html=1;" parent="1" vertex="1">
          <mxGeometry x="1240" y="994" width="98" height="40" as="geometry" />
        </mxCell>
        <mxCell id="hYy_9Ryrg1myL5dYlOFF-25" value="Z - Magazin" style="rounded=1;whiteSpace=wrap;html=1;" parent="1" vertex="1">
          <mxGeometry x="1480" y="994" width="98" height="40" as="geometry" />
        </mxCell>
        <mxCell id="hYy_9Ryrg1myL5dYlOFF-26" value="NZZaS Magazin" style="rounded=1;whiteSpace=wrap;html=1;" parent="1" vertex="1">
          <mxGeometry x="1540" y="944" width="98" height="40" as="geometry" />
        </mxCell>
        <mxCell id="hYy_9Ryrg1myL5dYlOFF-41" style="edgeStyle=elbowEdgeStyle;orthogonalLoop=1;jettySize=auto;elbow=vertical;html=1;endArrow=none;endFill=0;" parent="1" source="hYy_9Ryrg1myL5dYlOFF-28" target="hYy_9Ryrg1myL5dYlOFF-34" edge="1">
          <mxGeometry relative="1" as="geometry">
            <Array as="points">
              <mxPoint x="1789" y="885" />
            </Array>
          </mxGeometry>
        </mxCell>
        <mxCell id="hYy_9Ryrg1myL5dYlOFF-42" style="edgeStyle=elbowEdgeStyle;orthogonalLoop=1;jettySize=auto;elbow=vertical;html=1;entryX=0.5;entryY=0;entryDx=0;entryDy=0;endArrow=none;endFill=0;" parent="1" source="hYy_9Ryrg1myL5dYlOFF-28" target="hYy_9Ryrg1myL5dYlOFF-35" edge="1">
          <mxGeometry relative="1" as="geometry">
            <Array as="points">
              <mxPoint x="1789" y="885" />
            </Array>
          </mxGeometry>
        </mxCell>
        <mxCell id="hYy_9Ryrg1myL5dYlOFF-59" style="edgeStyle=elbowEdgeStyle;orthogonalLoop=1;jettySize=auto;elbow=vertical;html=1;endArrow=none;endFill=0;" parent="1" source="hYy_9Ryrg1myL5dYlOFF-28" target="hYy_9Ryrg1myL5dYlOFF-58" edge="1">
          <mxGeometry relative="1" as="geometry" />
        </mxCell>
        <mxCell id="hYy_9Ryrg1myL5dYlOFF-28" value="&lt;font style=&quot;font-size: 12px&quot;&gt;Events&lt;/font&gt;" style="rounded=1;whiteSpace=wrap;html=1;strokeWidth=1;shadow=0;sketch=1;glass=1;dashed=1;strokeColor=#5E5E5E;" parent="1" vertex="1">
          <mxGeometry x="1709" y="815" width="160" height="40" as="geometry" />
        </mxCell>
        <mxCell id="hYy_9Ryrg1myL5dYlOFF-64" style="edgeStyle=orthogonalEdgeStyle;orthogonalLoop=1;jettySize=auto;elbow=vertical;html=1;entryX=1;entryY=0.5;entryDx=0;entryDy=0;endArrow=none;endFill=0;" parent="1" source="hYy_9Ryrg1myL5dYlOFF-29" target="hYy_9Ryrg1myL5dYlOFF-50" edge="1">
          <mxGeometry relative="1" as="geometry" />
        </mxCell>
        <mxCell id="hYy_9Ryrg1myL5dYlOFF-68" style="orthogonalLoop=1;jettySize=auto;html=1;entryX=0;entryY=0.5;entryDx=0;entryDy=0;endArrow=none;endFill=0;edgeStyle=orthogonalEdgeStyle;" parent="1" source="hYy_9Ryrg1myL5dYlOFF-29" target="hYy_9Ryrg1myL5dYlOFF-51" edge="1">
          <mxGeometry relative="1" as="geometry" />
        </mxCell>
        <mxCell id="hYy_9Ryrg1myL5dYlOFF-69" style="edgeStyle=orthogonalEdgeStyle;orthogonalLoop=1;jettySize=auto;html=1;entryX=0;entryY=0.5;entryDx=0;entryDy=0;endArrow=none;endFill=0;" parent="1" source="hYy_9Ryrg1myL5dYlOFF-29" target="hYy_9Ryrg1myL5dYlOFF-53" edge="1">
          <mxGeometry relative="1" as="geometry" />
        </mxCell>
        <mxCell id="hYy_9Ryrg1myL5dYlOFF-70" style="edgeStyle=orthogonalEdgeStyle;orthogonalLoop=1;jettySize=auto;html=1;entryX=0;entryY=0.5;entryDx=0;entryDy=0;endArrow=none;endFill=0;" parent="1" source="hYy_9Ryrg1myL5dYlOFF-29" target="hYy_9Ryrg1myL5dYlOFF-54" edge="1">
          <mxGeometry relative="1" as="geometry" />
        </mxCell>
        <mxCell id="hYy_9Ryrg1myL5dYlOFF-71" style="edgeStyle=orthogonalEdgeStyle;orthogonalLoop=1;jettySize=auto;html=1;entryX=0;entryY=0.5;entryDx=0;entryDy=0;endArrow=none;endFill=0;" parent="1" source="hYy_9Ryrg1myL5dYlOFF-29" target="hYy_9Ryrg1myL5dYlOFF-55" edge="1">
          <mxGeometry relative="1" as="geometry" />
        </mxCell>
        <mxCell id="hYy_9Ryrg1myL5dYlOFF-72" style="edgeStyle=orthogonalEdgeStyle;orthogonalLoop=1;jettySize=auto;html=1;entryX=0;entryY=0.5;entryDx=0;entryDy=0;endArrow=none;endFill=0;" parent="1" source="hYy_9Ryrg1myL5dYlOFF-29" target="hYy_9Ryrg1myL5dYlOFF-56" edge="1">
          <mxGeometry relative="1" as="geometry" />
        </mxCell>
        <mxCell id="hYy_9Ryrg1myL5dYlOFF-73" style="edgeStyle=orthogonalEdgeStyle;orthogonalLoop=1;jettySize=auto;html=1;entryX=0;entryY=0.5;entryDx=0;entryDy=0;endArrow=none;endFill=0;" parent="1" source="hYy_9Ryrg1myL5dYlOFF-29" target="hYy_9Ryrg1myL5dYlOFF-62" edge="1">
          <mxGeometry relative="1" as="geometry" />
        </mxCell>
        <mxCell id="hYy_9Ryrg1myL5dYlOFF-182" style="edgeStyle=orthogonalEdgeStyle;orthogonalLoop=1;jettySize=auto;html=1;entryX=1;entryY=0.5;entryDx=0;entryDy=0;endArrow=none;endFill=0;fontSize=10;" parent="1" source="hYy_9Ryrg1myL5dYlOFF-29" target="hYy_9Ryrg1myL5dYlOFF-52" edge="1">
          <mxGeometry relative="1" as="geometry" />
        </mxCell>
        <mxCell id="hYy_9Ryrg1myL5dYlOFF-183" style="edgeStyle=orthogonalEdgeStyle;orthogonalLoop=1;jettySize=auto;html=1;entryX=1;entryY=0.5;entryDx=0;entryDy=0;endArrow=none;endFill=0;fontSize=10;" parent="1" source="hYy_9Ryrg1myL5dYlOFF-29" target="hYy_9Ryrg1myL5dYlOFF-57" edge="1">
          <mxGeometry relative="1" as="geometry" />
        </mxCell>
        <mxCell id="hYy_9Ryrg1myL5dYlOFF-184" style="edgeStyle=orthogonalEdgeStyle;orthogonalLoop=1;jettySize=auto;html=1;entryX=1;entryY=0.5;entryDx=0;entryDy=0;endArrow=none;endFill=0;fontSize=10;" parent="1" source="hYy_9Ryrg1myL5dYlOFF-29" target="hYy_9Ryrg1myL5dYlOFF-63" edge="1">
          <mxGeometry relative="1" as="geometry" />
        </mxCell>
        <mxCell id="hYy_9Ryrg1myL5dYlOFF-29" value="&lt;font style=&quot;font-size: 12px&quot;&gt;Plattformen / Sonstiges&lt;/font&gt;" style="rounded=1;whiteSpace=wrap;html=1;strokeWidth=1;shadow=0;sketch=1;glass=1;dashed=1;strokeColor=#5E5E5E;" parent="1" vertex="1">
          <mxGeometry x="1991" y="807.5" width="160" height="40" as="geometry" />
        </mxCell>
        <mxCell id="hYy_9Ryrg1myL5dYlOFF-34" value="NZZ Konferenzen" style="rounded=1;whiteSpace=wrap;html=1;" parent="1" vertex="1">
          <mxGeometry x="1680" y="910" width="98" height="40" as="geometry" />
        </mxCell>
        <mxCell id="hYy_9Ryrg1myL5dYlOFF-35" value="NZZ Live" style="rounded=1;whiteSpace=wrap;html=1;" parent="1" vertex="1">
          <mxGeometry x="1740" y="960" width="98" height="40" as="geometry" />
        </mxCell>
        <mxCell id="hYy_9Ryrg1myL5dYlOFF-50" value="Moneyhouse" style="rounded=1;whiteSpace=wrap;html=1;" parent="1" vertex="1">
          <mxGeometry x="1944" y="867.5" width="98" height="40" as="geometry" />
        </mxCell>
        <mxCell id="hYy_9Ryrg1myL5dYlOFF-51" value="NZZ Jobs" style="rounded=1;whiteSpace=wrap;html=1;" parent="1" vertex="1">
          <mxGeometry x="2101" y="867.5" width="98" height="40" as="geometry" />
        </mxCell>
        <mxCell id="hYy_9Ryrg1myL5dYlOFF-52" value="The Market" style="rounded=1;whiteSpace=wrap;html=1;" parent="1" vertex="1">
          <mxGeometry x="1944" y="918.5" width="98" height="40" as="geometry" />
        </mxCell>
        <mxCell id="hYy_9Ryrg1myL5dYlOFF-53" value="NZZ Domizil" style="rounded=1;whiteSpace=wrap;html=1;" parent="1" vertex="1">
          <mxGeometry x="2101" y="917.5" width="98" height="40" as="geometry" />
        </mxCell>
        <mxCell id="hYy_9Ryrg1myL5dYlOFF-54" value="NZZ Edition" style="rounded=1;whiteSpace=wrap;html=1;" parent="1" vertex="1">
          <mxGeometry x="2101" y="967.5" width="98" height="40" as="geometry" />
        </mxCell>
        <mxCell id="hYy_9Ryrg1myL5dYlOFF-55" value="NZZ Reisen" style="rounded=1;whiteSpace=wrap;html=1;" parent="1" vertex="1">
          <mxGeometry x="2101" y="1017.5" width="98" height="40" as="geometry" />
        </mxCell>
        <mxCell id="hYy_9Ryrg1myL5dYlOFF-56" value="NZZ Shop" style="rounded=1;whiteSpace=wrap;html=1;" parent="1" vertex="1">
          <mxGeometry x="2101" y="1067.5" width="98" height="40" as="geometry" />
        </mxCell>
        <mxCell id="hYy_9Ryrg1myL5dYlOFF-58" value="Zurich Film Festival" style="rounded=1;whiteSpace=wrap;html=1;" parent="1" vertex="1">
          <mxGeometry x="1800" y="910" width="98" height="40" as="geometry" />
        </mxCell>
        <mxCell id="hYy_9Ryrg1myL5dYlOFF-60" value="Frame - Magazin" style="rounded=1;whiteSpace=wrap;html=1;" parent="1" vertex="1">
          <mxGeometry x="1180" y="944" width="98" height="40" as="geometry" />
        </mxCell>
        <mxCell id="hYy_9Ryrg1myL5dYlOFF-62" value="NZZ Corner" style="rounded=1;whiteSpace=wrap;html=1;" parent="1" vertex="1">
          <mxGeometry x="2101" y="1117.5" width="98" height="40" as="geometry" />
        </mxCell>
        <mxCell id="hYy_9Ryrg1myL5dYlOFF-63" value="Bindexis" style="rounded=1;whiteSpace=wrap;html=1;" parent="1" vertex="1">
          <mxGeometry x="1944" y="1018.5" width="98" height="40" as="geometry" />
        </mxCell>
        <mxCell id="hYy_9Ryrg1myL5dYlOFF-77" style="edgeStyle=orthogonalEdgeStyle;orthogonalLoop=1;jettySize=auto;html=1;entryX=0.5;entryY=0;entryDx=0;entryDy=0;endArrow=none;endFill=0;" parent="1" source="hYy_9Ryrg1myL5dYlOFF-74" target="hYy_9Ryrg1myL5dYlOFF-75" edge="1">
          <mxGeometry relative="1" as="geometry" />
        </mxCell>
        <mxCell id="hYy_9Ryrg1myL5dYlOFF-78" style="edgeStyle=orthogonalEdgeStyle;orthogonalLoop=1;jettySize=auto;html=1;entryX=0.5;entryY=0;entryDx=0;entryDy=0;endArrow=none;endFill=0;" parent="1" source="hYy_9Ryrg1myL5dYlOFF-74" target="hYy_9Ryrg1myL5dYlOFF-76" edge="1">
          <mxGeometry relative="1" as="geometry" />
        </mxCell>
        <mxCell id="hYy_9Ryrg1myL5dYlOFF-74" value="&lt;font style=&quot;font-size: 12px&quot;&gt;TV&lt;/font&gt;" style="rounded=1;whiteSpace=wrap;html=1;strokeWidth=1;shadow=0;sketch=1;glass=1;dashed=1;strokeColor=#5E5E5E;" parent="1" vertex="1">
          <mxGeometry x="1844" y="620" width="160" height="40" as="geometry" />
        </mxCell>
        <mxCell id="hYy_9Ryrg1myL5dYlOFF-75" value="NZZ Format" style="rounded=1;whiteSpace=wrap;html=1;" parent="1" vertex="1">
          <mxGeometry x="1820" y="699" width="98" height="40" as="geometry" />
        </mxCell>
        <mxCell id="hYy_9Ryrg1myL5dYlOFF-76" value="NZZ Standpunkte" style="rounded=1;whiteSpace=wrap;html=1;" parent="1" vertex="1">
          <mxGeometry x="1930" y="699" width="98" height="40" as="geometry" />
        </mxCell>
        <mxCell id="hYy_9Ryrg1myL5dYlOFF-173" style="edgeStyle=elbowEdgeStyle;orthogonalLoop=1;jettySize=auto;elbow=vertical;html=1;entryX=0.5;entryY=0;entryDx=0;entryDy=0;endArrow=none;endFill=0;fontSize=10;" parent="1" source="hYy_9Ryrg1myL5dYlOFF-84" target="hYy_9Ryrg1myL5dYlOFF-160" edge="1">
          <mxGeometry relative="1" as="geometry">
            <Array as="points">
              <mxPoint x="2902" y="1160" />
            </Array>
          </mxGeometry>
        </mxCell>
        <mxCell id="hYy_9Ryrg1myL5dYlOFF-174" style="edgeStyle=elbowEdgeStyle;orthogonalLoop=1;jettySize=auto;elbow=vertical;html=1;entryX=0.5;entryY=0;entryDx=0;entryDy=0;endArrow=none;endFill=0;fontSize=10;" parent="1" source="hYy_9Ryrg1myL5dYlOFF-84" target="hYy_9Ryrg1myL5dYlOFF-163" edge="1">
          <mxGeometry relative="1" as="geometry">
            <Array as="points">
              <mxPoint x="2902" y="1160" />
            </Array>
          </mxGeometry>
        </mxCell>
        <mxCell id="hYy_9Ryrg1myL5dYlOFF-175" style="edgeStyle=elbowEdgeStyle;orthogonalLoop=1;jettySize=auto;elbow=vertical;html=1;entryX=0.5;entryY=0;entryDx=0;entryDy=0;endArrow=none;endFill=0;fontSize=10;" parent="1" source="hYy_9Ryrg1myL5dYlOFF-84" target="hYy_9Ryrg1myL5dYlOFF-169" edge="1">
          <mxGeometry relative="1" as="geometry">
            <Array as="points">
              <mxPoint x="2902" y="1160" />
            </Array>
          </mxGeometry>
        </mxCell>
        <mxCell id="hYy_9Ryrg1myL5dYlOFF-176" style="edgeStyle=elbowEdgeStyle;orthogonalLoop=1;jettySize=auto;elbow=vertical;html=1;endArrow=none;endFill=0;fontSize=10;" parent="1" source="hYy_9Ryrg1myL5dYlOFF-84" target="hYy_9Ryrg1myL5dYlOFF-164" edge="1">
          <mxGeometry relative="1" as="geometry">
            <Array as="points">
              <mxPoint x="2902" y="1160" />
            </Array>
          </mxGeometry>
        </mxCell>
        <mxCell id="hYy_9Ryrg1myL5dYlOFF-177" style="edgeStyle=elbowEdgeStyle;orthogonalLoop=1;jettySize=auto;elbow=vertical;html=1;endArrow=none;endFill=0;fontSize=10;" parent="1" source="hYy_9Ryrg1myL5dYlOFF-84" target="hYy_9Ryrg1myL5dYlOFF-162" edge="1">
          <mxGeometry relative="1" as="geometry">
            <Array as="points">
              <mxPoint x="2902" y="1160" />
            </Array>
          </mxGeometry>
        </mxCell>
        <mxCell id="hYy_9Ryrg1myL5dYlOFF-178" style="edgeStyle=elbowEdgeStyle;orthogonalLoop=1;jettySize=auto;elbow=vertical;html=1;entryX=0.5;entryY=0;entryDx=0;entryDy=0;endArrow=none;endFill=0;fontSize=10;" parent="1" source="hYy_9Ryrg1myL5dYlOFF-84" target="hYy_9Ryrg1myL5dYlOFF-167" edge="1">
          <mxGeometry relative="1" as="geometry">
            <Array as="points">
              <mxPoint x="2902" y="1160" />
            </Array>
          </mxGeometry>
        </mxCell>
        <mxCell id="hYy_9Ryrg1myL5dYlOFF-179" style="edgeStyle=elbowEdgeStyle;orthogonalLoop=1;jettySize=auto;elbow=vertical;html=1;endArrow=none;endFill=0;fontSize=10;" parent="1" source="hYy_9Ryrg1myL5dYlOFF-84" target="hYy_9Ryrg1myL5dYlOFF-172" edge="1">
          <mxGeometry relative="1" as="geometry">
            <Array as="points">
              <mxPoint x="2902" y="1160" />
            </Array>
          </mxGeometry>
        </mxCell>
        <mxCell id="hYy_9Ryrg1myL5dYlOFF-180" style="edgeStyle=elbowEdgeStyle;orthogonalLoop=1;jettySize=auto;elbow=vertical;html=1;entryX=0.5;entryY=0;entryDx=0;entryDy=0;endArrow=none;endFill=0;fontSize=10;exitX=0.5;exitY=1;exitDx=0;exitDy=0;" parent="1" source="hYy_9Ryrg1myL5dYlOFF-84" target="hYy_9Ryrg1myL5dYlOFF-168" edge="1">
          <mxGeometry relative="1" as="geometry">
            <Array as="points">
              <mxPoint x="2902" y="1160" />
            </Array>
          </mxGeometry>
        </mxCell>
        <mxCell id="hYy_9Ryrg1myL5dYlOFF-84" value="&lt;font style=&quot;font-size: 12px&quot;&gt;TV&lt;/font&gt;" style="rounded=1;whiteSpace=wrap;html=1;strokeWidth=1;shadow=0;sketch=1;glass=1;dashed=1;strokeColor=#5E5E5E;" parent="1" vertex="1">
          <mxGeometry x="2822" y="1080" width="160" height="40" as="geometry" />
        </mxCell>
        <mxCell id="hYy_9Ryrg1myL5dYlOFF-89" style="edgeStyle=elbowEdgeStyle;orthogonalLoop=1;jettySize=auto;elbow=vertical;html=1;endArrow=none;endFill=0;fontSize=20;" parent="1" source="hYy_9Ryrg1myL5dYlOFF-88" target="hYy_9Ryrg1myL5dYlOFF-60" edge="1">
          <mxGeometry relative="1" as="geometry">
            <Array as="points">
              <mxPoint x="1409" y="895" />
              <mxPoint x="1340" y="895" />
            </Array>
          </mxGeometry>
        </mxCell>
        <mxCell id="hYy_9Ryrg1myL5dYlOFF-90" style="edgeStyle=elbowEdgeStyle;orthogonalLoop=1;jettySize=auto;elbow=vertical;html=1;entryX=0.5;entryY=0;entryDx=0;entryDy=0;endArrow=none;endFill=0;fontSize=20;" parent="1" source="hYy_9Ryrg1myL5dYlOFF-88" target="hYy_9Ryrg1myL5dYlOFF-16" edge="1">
          <mxGeometry relative="1" as="geometry">
            <Array as="points">
              <mxPoint x="1410" y="895" />
            </Array>
          </mxGeometry>
        </mxCell>
        <mxCell id="hYy_9Ryrg1myL5dYlOFF-91" style="edgeStyle=elbowEdgeStyle;orthogonalLoop=1;jettySize=auto;elbow=vertical;html=1;entryX=0.5;entryY=0;entryDx=0;entryDy=0;endArrow=none;endFill=0;fontSize=20;" parent="1" source="hYy_9Ryrg1myL5dYlOFF-88" target="hYy_9Ryrg1myL5dYlOFF-17" edge="1">
          <mxGeometry relative="1" as="geometry">
            <Array as="points">
              <mxPoint x="1409" y="895" />
              <mxPoint x="1520" y="895" />
            </Array>
          </mxGeometry>
        </mxCell>
        <mxCell id="hYy_9Ryrg1myL5dYlOFF-92" style="edgeStyle=elbowEdgeStyle;orthogonalLoop=1;jettySize=auto;elbow=vertical;html=1;entryX=0.5;entryY=0;entryDx=0;entryDy=0;endArrow=none;endFill=0;fontSize=20;" parent="1" source="hYy_9Ryrg1myL5dYlOFF-88" target="hYy_9Ryrg1myL5dYlOFF-26" edge="1">
          <mxGeometry relative="1" as="geometry">
            <Array as="points">
              <mxPoint x="1520" y="895" />
            </Array>
          </mxGeometry>
        </mxCell>
        <mxCell id="hYy_9Ryrg1myL5dYlOFF-93" style="edgeStyle=elbowEdgeStyle;orthogonalLoop=1;jettySize=auto;elbow=vertical;html=1;entryX=0.5;entryY=0;entryDx=0;entryDy=0;endArrow=none;endFill=0;fontSize=20;" parent="1" source="hYy_9Ryrg1myL5dYlOFF-88" target="hYy_9Ryrg1myL5dYlOFF-25" edge="1">
          <mxGeometry relative="1" as="geometry">
            <Array as="points">
              <mxPoint x="1520" y="895" />
            </Array>
          </mxGeometry>
        </mxCell>
        <mxCell id="hYy_9Ryrg1myL5dYlOFF-94" style="edgeStyle=elbowEdgeStyle;orthogonalLoop=1;jettySize=auto;elbow=vertical;html=1;entryX=0.5;entryY=0;entryDx=0;entryDy=0;endArrow=none;endFill=0;fontSize=20;" parent="1" source="hYy_9Ryrg1myL5dYlOFF-88" target="hYy_9Ryrg1myL5dYlOFF-15" edge="1">
          <mxGeometry relative="1" as="geometry">
            <Array as="points">
              <mxPoint x="1409" y="895" />
              <mxPoint x="1520" y="895" />
            </Array>
          </mxGeometry>
        </mxCell>
        <mxCell id="hYy_9Ryrg1myL5dYlOFF-95" style="edgeStyle=elbowEdgeStyle;orthogonalLoop=1;jettySize=auto;elbow=vertical;html=1;entryX=0.5;entryY=0;entryDx=0;entryDy=0;endArrow=none;endFill=0;fontSize=20;" parent="1" source="hYy_9Ryrg1myL5dYlOFF-88" target="hYy_9Ryrg1myL5dYlOFF-18" edge="1">
          <mxGeometry relative="1" as="geometry">
            <Array as="points">
              <mxPoint x="1409" y="895" />
              <mxPoint x="1420" y="895" />
            </Array>
          </mxGeometry>
        </mxCell>
        <mxCell id="hYy_9Ryrg1myL5dYlOFF-88" value="Magazine" style="rounded=1;whiteSpace=wrap;html=1;strokeWidth=1;shadow=0;sketch=1;glass=1;dashed=1;strokeColor=#5E5E5E;" parent="1" vertex="1">
          <mxGeometry x="1329" y="815" width="160" height="40" as="geometry" />
        </mxCell>
        <mxCell id="hYy_9Ryrg1myL5dYlOFF-153" style="edgeStyle=elbowEdgeStyle;orthogonalLoop=1;jettySize=auto;elbow=vertical;html=1;endArrow=none;endFill=0;fontSize=20;" parent="1" source="hYy_9Ryrg1myL5dYlOFF-97" target="hYy_9Ryrg1myL5dYlOFF-141" edge="1">
          <mxGeometry relative="1" as="geometry">
            <Array as="points">
              <mxPoint x="2668" y="760" />
            </Array>
          </mxGeometry>
        </mxCell>
        <mxCell id="hYy_9Ryrg1myL5dYlOFF-154" style="edgeStyle=elbowEdgeStyle;orthogonalLoop=1;jettySize=auto;elbow=vertical;html=1;entryX=0.5;entryY=0;entryDx=0;entryDy=0;endArrow=none;endFill=0;fontSize=20;" parent="1" source="hYy_9Ryrg1myL5dYlOFF-97" target="hYy_9Ryrg1myL5dYlOFF-145" edge="1">
          <mxGeometry relative="1" as="geometry" />
        </mxCell>
        <mxCell id="hYy_9Ryrg1myL5dYlOFF-155" style="edgeStyle=elbowEdgeStyle;orthogonalLoop=1;jettySize=auto;elbow=vertical;html=1;entryX=0.5;entryY=0;entryDx=0;entryDy=0;endArrow=none;endFill=0;fontSize=20;" parent="1" source="hYy_9Ryrg1myL5dYlOFF-97" target="hYy_9Ryrg1myL5dYlOFF-150" edge="1">
          <mxGeometry relative="1" as="geometry">
            <Array as="points">
              <mxPoint x="2668" y="760" />
            </Array>
          </mxGeometry>
        </mxCell>
        <mxCell id="hYy_9Ryrg1myL5dYlOFF-156" style="edgeStyle=elbowEdgeStyle;orthogonalLoop=1;jettySize=auto;elbow=vertical;html=1;endArrow=none;endFill=0;fontSize=20;" parent="1" source="hYy_9Ryrg1myL5dYlOFF-97" target="hYy_9Ryrg1myL5dYlOFF-148" edge="1">
          <mxGeometry relative="1" as="geometry">
            <Array as="points">
              <mxPoint x="2668" y="760" />
              <mxPoint x="2668" y="741" />
              <mxPoint x="2668" y="741" />
            </Array>
          </mxGeometry>
        </mxCell>
        <mxCell id="hYy_9Ryrg1myL5dYlOFF-157" style="edgeStyle=elbowEdgeStyle;orthogonalLoop=1;jettySize=auto;elbow=vertical;html=1;endArrow=none;endFill=0;fontSize=20;" parent="1" source="hYy_9Ryrg1myL5dYlOFF-97" target="hYy_9Ryrg1myL5dYlOFF-149" edge="1">
          <mxGeometry relative="1" as="geometry" />
        </mxCell>
        <mxCell id="hYy_9Ryrg1myL5dYlOFF-158" style="edgeStyle=elbowEdgeStyle;orthogonalLoop=1;jettySize=auto;elbow=vertical;html=1;endArrow=none;endFill=0;fontSize=20;" parent="1" source="hYy_9Ryrg1myL5dYlOFF-97" target="hYy_9Ryrg1myL5dYlOFF-152" edge="1">
          <mxGeometry relative="1" as="geometry">
            <Array as="points">
              <mxPoint x="2668" y="760" />
            </Array>
          </mxGeometry>
        </mxCell>
        <mxCell id="hYy_9Ryrg1myL5dYlOFF-97" value="Magazine" style="rounded=1;whiteSpace=wrap;html=1;strokeWidth=1;shadow=0;sketch=1;glass=1;dashed=1;strokeColor=#5E5E5E;" parent="1" vertex="1">
          <mxGeometry x="2588" y="680" width="160" height="40" as="geometry" />
        </mxCell>
        <mxCell id="hYy_9Ryrg1myL5dYlOFF-125" style="edgeStyle=elbowEdgeStyle;orthogonalLoop=1;jettySize=auto;elbow=vertical;html=1;entryX=0.5;entryY=0;entryDx=0;entryDy=0;endArrow=none;endFill=0;fontSize=20;exitX=0.487;exitY=0.999;exitDx=0;exitDy=0;exitPerimeter=0;" parent="1" source="hYy_9Ryrg1myL5dYlOFF-99" target="hYy_9Ryrg1myL5dYlOFF-106" edge="1">
          <mxGeometry relative="1" as="geometry">
            <Array as="points">
              <mxPoint x="2444" y="1160" />
              <mxPoint x="2454" y="1160" />
            </Array>
          </mxGeometry>
        </mxCell>
        <mxCell id="hYy_9Ryrg1myL5dYlOFF-126" style="edgeStyle=elbowEdgeStyle;orthogonalLoop=1;jettySize=auto;elbow=vertical;html=1;entryX=0.5;entryY=0;entryDx=0;entryDy=0;endArrow=none;endFill=0;fontSize=20;" parent="1" source="hYy_9Ryrg1myL5dYlOFF-99" target="hYy_9Ryrg1myL5dYlOFF-107" edge="1">
          <mxGeometry relative="1" as="geometry">
            <Array as="points">
              <mxPoint x="2442" y="1165" />
            </Array>
          </mxGeometry>
        </mxCell>
        <mxCell id="hYy_9Ryrg1myL5dYlOFF-127" style="edgeStyle=elbowEdgeStyle;orthogonalLoop=1;jettySize=auto;elbow=vertical;html=1;entryX=0.5;entryY=0;entryDx=0;entryDy=0;endArrow=none;endFill=0;fontSize=20;exitX=0.486;exitY=0.996;exitDx=0;exitDy=0;exitPerimeter=0;" parent="1" source="hYy_9Ryrg1myL5dYlOFF-99" target="hYy_9Ryrg1myL5dYlOFF-108" edge="1">
          <mxGeometry relative="1" as="geometry">
            <Array as="points">
              <mxPoint x="2474" y="1160" />
            </Array>
          </mxGeometry>
        </mxCell>
        <mxCell id="hYy_9Ryrg1myL5dYlOFF-129" style="edgeStyle=elbowEdgeStyle;orthogonalLoop=1;jettySize=auto;elbow=vertical;html=1;entryX=0.5;entryY=0;entryDx=0;entryDy=0;endArrow=none;endFill=0;fontSize=20;exitX=0.487;exitY=0.991;exitDx=0;exitDy=0;exitPerimeter=0;" parent="1" source="hYy_9Ryrg1myL5dYlOFF-99" target="hYy_9Ryrg1myL5dYlOFF-109" edge="1">
          <mxGeometry relative="1" as="geometry">
            <Array as="points">
              <mxPoint x="2444" y="1160" />
            </Array>
          </mxGeometry>
        </mxCell>
        <mxCell id="hYy_9Ryrg1myL5dYlOFF-130" style="edgeStyle=elbowEdgeStyle;orthogonalLoop=1;jettySize=auto;elbow=vertical;html=1;entryX=0.5;entryY=0;entryDx=0;entryDy=0;endArrow=none;endFill=0;fontSize=20;exitX=0.488;exitY=1.004;exitDx=0;exitDy=0;exitPerimeter=0;" parent="1" source="hYy_9Ryrg1myL5dYlOFF-99" target="hYy_9Ryrg1myL5dYlOFF-112" edge="1">
          <mxGeometry relative="1" as="geometry">
            <Array as="points">
              <mxPoint x="2444" y="1160" />
            </Array>
          </mxGeometry>
        </mxCell>
        <mxCell id="hYy_9Ryrg1myL5dYlOFF-131" style="edgeStyle=elbowEdgeStyle;orthogonalLoop=1;jettySize=auto;elbow=vertical;html=1;entryX=0.5;entryY=0;entryDx=0;entryDy=0;endArrow=none;endFill=0;fontSize=20;exitX=0.487;exitY=1.007;exitDx=0;exitDy=0;exitPerimeter=0;" parent="1" source="hYy_9Ryrg1myL5dYlOFF-99" target="hYy_9Ryrg1myL5dYlOFF-115" edge="1">
          <mxGeometry relative="1" as="geometry">
            <Array as="points">
              <mxPoint x="2434" y="1160" />
              <mxPoint x="2444" y="1160" />
            </Array>
          </mxGeometry>
        </mxCell>
        <mxCell id="hYy_9Ryrg1myL5dYlOFF-132" style="edgeStyle=elbowEdgeStyle;orthogonalLoop=1;jettySize=auto;elbow=vertical;html=1;entryX=0.5;entryY=0;entryDx=0;entryDy=0;endArrow=none;endFill=0;fontSize=20;exitX=0.487;exitY=0.993;exitDx=0;exitDy=0;exitPerimeter=0;" parent="1" source="hYy_9Ryrg1myL5dYlOFF-99" target="hYy_9Ryrg1myL5dYlOFF-117" edge="1">
          <mxGeometry relative="1" as="geometry">
            <Array as="points">
              <mxPoint x="2444" y="1160" />
            </Array>
          </mxGeometry>
        </mxCell>
        <mxCell id="hYy_9Ryrg1myL5dYlOFF-133" style="edgeStyle=elbowEdgeStyle;orthogonalLoop=1;jettySize=auto;elbow=vertical;html=1;entryX=0.5;entryY=0;entryDx=0;entryDy=0;endArrow=none;endFill=0;fontSize=20;exitX=0.483;exitY=1.005;exitDx=0;exitDy=0;exitPerimeter=0;" parent="1" source="hYy_9Ryrg1myL5dYlOFF-99" target="hYy_9Ryrg1myL5dYlOFF-120" edge="1">
          <mxGeometry relative="1" as="geometry">
            <Array as="points">
              <mxPoint x="2434" y="1160" />
              <mxPoint x="2434" y="1120" />
              <mxPoint x="2444" y="1160" />
              <mxPoint x="2444" y="1160" />
            </Array>
          </mxGeometry>
        </mxCell>
        <mxCell id="hYy_9Ryrg1myL5dYlOFF-134" style="edgeStyle=elbowEdgeStyle;orthogonalLoop=1;jettySize=auto;elbow=vertical;html=1;endArrow=none;endFill=0;fontSize=20;" parent="1" source="hYy_9Ryrg1myL5dYlOFF-99" target="hYy_9Ryrg1myL5dYlOFF-123" edge="1">
          <mxGeometry relative="1" as="geometry">
            <Array as="points">
              <mxPoint x="2442" y="1170" />
            </Array>
          </mxGeometry>
        </mxCell>
        <mxCell id="hYy_9Ryrg1myL5dYlOFF-135" style="edgeStyle=elbowEdgeStyle;orthogonalLoop=1;jettySize=auto;elbow=vertical;html=1;entryX=0.5;entryY=0;entryDx=0;entryDy=0;endArrow=none;endFill=0;fontSize=20;" parent="1" source="hYy_9Ryrg1myL5dYlOFF-99" target="hYy_9Ryrg1myL5dYlOFF-121" edge="1">
          <mxGeometry relative="1" as="geometry">
            <Array as="points">
              <mxPoint x="2442" y="1160" />
            </Array>
          </mxGeometry>
        </mxCell>
        <mxCell id="hYy_9Ryrg1myL5dYlOFF-136" style="edgeStyle=elbowEdgeStyle;orthogonalLoop=1;jettySize=auto;elbow=vertical;html=1;entryX=0.5;entryY=0;entryDx=0;entryDy=0;endArrow=none;endFill=0;fontSize=20;" parent="1" source="hYy_9Ryrg1myL5dYlOFF-99" target="hYy_9Ryrg1myL5dYlOFF-118" edge="1">
          <mxGeometry relative="1" as="geometry">
            <Array as="points">
              <mxPoint x="2442" y="1170" />
            </Array>
          </mxGeometry>
        </mxCell>
        <mxCell id="hYy_9Ryrg1myL5dYlOFF-137" style="edgeStyle=elbowEdgeStyle;orthogonalLoop=1;jettySize=auto;elbow=vertical;html=1;entryX=0.5;entryY=0;entryDx=0;entryDy=0;endArrow=none;endFill=0;fontSize=20;" parent="1" source="hYy_9Ryrg1myL5dYlOFF-99" target="hYy_9Ryrg1myL5dYlOFF-113" edge="1">
          <mxGeometry relative="1" as="geometry">
            <Array as="points">
              <mxPoint x="2442" y="1160" />
            </Array>
          </mxGeometry>
        </mxCell>
        <mxCell id="hYy_9Ryrg1myL5dYlOFF-138" style="edgeStyle=elbowEdgeStyle;orthogonalLoop=1;jettySize=auto;elbow=vertical;html=1;endArrow=none;endFill=0;fontSize=20;" parent="1" source="hYy_9Ryrg1myL5dYlOFF-99" target="hYy_9Ryrg1myL5dYlOFF-110" edge="1">
          <mxGeometry relative="1" as="geometry">
            <Array as="points">
              <mxPoint x="2442" y="1160" />
            </Array>
          </mxGeometry>
        </mxCell>
        <mxCell id="hYy_9Ryrg1myL5dYlOFF-139" style="edgeStyle=elbowEdgeStyle;orthogonalLoop=1;jettySize=auto;elbow=vertical;html=1;entryX=0.5;entryY=0;entryDx=0;entryDy=0;endArrow=none;endFill=0;fontSize=20;" parent="1" source="hYy_9Ryrg1myL5dYlOFF-99" target="hYy_9Ryrg1myL5dYlOFF-107" edge="1">
          <mxGeometry relative="1" as="geometry">
            <Array as="points">
              <mxPoint x="2442" y="1150" />
            </Array>
          </mxGeometry>
        </mxCell>
        <mxCell id="hYy_9Ryrg1myL5dYlOFF-140" style="edgeStyle=elbowEdgeStyle;orthogonalLoop=1;jettySize=auto;elbow=vertical;html=1;entryX=0.5;entryY=0;entryDx=0;entryDy=0;endArrow=none;endFill=0;fontSize=20;exitX=0.485;exitY=1.001;exitDx=0;exitDy=0;exitPerimeter=0;" parent="1" source="hYy_9Ryrg1myL5dYlOFF-99" target="hYy_9Ryrg1myL5dYlOFF-122" edge="1">
          <mxGeometry relative="1" as="geometry">
            <Array as="points">
              <mxPoint x="2444" y="1160" />
              <mxPoint x="2444" y="1160" />
            </Array>
          </mxGeometry>
        </mxCell>
        <mxCell id="hYy_9Ryrg1myL5dYlOFF-99" value="Zeitungen" style="rounded=1;whiteSpace=wrap;html=1;strokeWidth=1;shadow=0;sketch=1;glass=1;dashed=1;strokeColor=#5E5E5E;" parent="1" vertex="1">
          <mxGeometry x="2364" y="1080" width="160" height="40" as="geometry" />
        </mxCell>
        <mxCell id="hYy_9Ryrg1myL5dYlOFF-106" value="Aargauer&lt;br&gt;Zeitung" style="rounded=1;whiteSpace=wrap;html=1;" parent="1" vertex="1">
          <mxGeometry x="2278" y="1210" width="98" height="40" as="geometry" />
        </mxCell>
        <mxCell id="hYy_9Ryrg1myL5dYlOFF-107" value="Appenzeller&lt;br&gt;Zeitung" style="rounded=1;whiteSpace=wrap;html=1;" parent="1" vertex="1">
          <mxGeometry x="2393" y="1210" width="98" height="40" as="geometry" />
        </mxCell>
        <mxCell id="hYy_9Ryrg1myL5dYlOFF-108" value="Badener&lt;br&gt;Tagblatt" style="rounded=1;whiteSpace=wrap;html=1;" parent="1" vertex="1">
          <mxGeometry x="2512" y="1210" width="98" height="40" as="geometry" />
        </mxCell>
        <mxCell id="hYy_9Ryrg1myL5dYlOFF-109" value="Basler&lt;br&gt;Zeitung (bz)" style="rounded=1;whiteSpace=wrap;html=1;" parent="1" vertex="1">
          <mxGeometry x="2278" y="1270" width="98" height="40" as="geometry" />
        </mxCell>
        <mxCell id="hYy_9Ryrg1myL5dYlOFF-110" value="Grenchner&lt;br&gt;Tagblatt" style="rounded=1;whiteSpace=wrap;html=1;" parent="1" vertex="1">
          <mxGeometry x="2393" y="1270" width="98" height="40" as="geometry" />
        </mxCell>
        <mxCell id="hYy_9Ryrg1myL5dYlOFF-111" value="Limmattaler&lt;br&gt;Zeitung" style="rounded=1;whiteSpace=wrap;html=1;" parent="1" vertex="1">
          <mxGeometry x="2512" y="1270" width="98" height="40" as="geometry" />
        </mxCell>
        <mxCell id="hYy_9Ryrg1myL5dYlOFF-112" value="Luzerner&lt;br&gt;Zeitung" style="rounded=1;whiteSpace=wrap;html=1;" parent="1" vertex="1">
          <mxGeometry x="2278" y="1330" width="98" height="40" as="geometry" />
        </mxCell>
        <mxCell id="hYy_9Ryrg1myL5dYlOFF-113" value="Nidwaldner&lt;br&gt;Zeitung" style="rounded=1;whiteSpace=wrap;html=1;" parent="1" vertex="1">
          <mxGeometry x="2393" y="1330" width="98" height="40" as="geometry" />
        </mxCell>
        <mxCell id="hYy_9Ryrg1myL5dYlOFF-114" value="Obwaldner&lt;br&gt;Zeitung" style="rounded=1;whiteSpace=wrap;html=1;" parent="1" vertex="1">
          <mxGeometry x="2512" y="1330" width="98" height="40" as="geometry" />
        </mxCell>
        <mxCell id="hYy_9Ryrg1myL5dYlOFF-115" value="Oltner&lt;br&gt;Tagblatt" style="rounded=1;whiteSpace=wrap;html=1;" parent="1" vertex="1">
          <mxGeometry x="2278" y="1389" width="98" height="40" as="geometry" />
        </mxCell>
        <mxCell id="hYy_9Ryrg1myL5dYlOFF-116" value="Schweiz am&lt;br&gt;Wochenende" style="rounded=1;whiteSpace=wrap;html=1;" parent="1" vertex="1">
          <mxGeometry x="2393" y="1389" width="98" height="40" as="geometry" />
        </mxCell>
        <mxCell id="hYy_9Ryrg1myL5dYlOFF-117" value="St. Galler&lt;br&gt;Tagblatt" style="rounded=1;whiteSpace=wrap;html=1;" parent="1" vertex="1">
          <mxGeometry x="2278" y="1449" width="98" height="40" as="geometry" />
        </mxCell>
        <mxCell id="hYy_9Ryrg1myL5dYlOFF-118" value="Thurgauer&lt;br&gt;Zeitung" style="rounded=1;whiteSpace=wrap;html=1;" parent="1" vertex="1">
          <mxGeometry x="2393" y="1449" width="98" height="40" as="geometry" />
        </mxCell>
        <mxCell id="hYy_9Ryrg1myL5dYlOFF-119" value="Toggenburger&lt;br&gt;Tagblatt" style="rounded=1;whiteSpace=wrap;html=1;" parent="1" vertex="1">
          <mxGeometry x="2512" y="1449" width="98" height="40" as="geometry" />
        </mxCell>
        <mxCell id="hYy_9Ryrg1myL5dYlOFF-120" value="Urner&lt;br&gt;Zeitung" style="rounded=1;whiteSpace=wrap;html=1;" parent="1" vertex="1">
          <mxGeometry x="2278" y="1510" width="98" height="40" as="geometry" />
        </mxCell>
        <mxCell id="hYy_9Ryrg1myL5dYlOFF-121" value="Werdenberger &amp;amp;&lt;br&gt;Obertoggenburger" style="rounded=1;whiteSpace=wrap;html=1;" parent="1" vertex="1">
          <mxGeometry x="2393" y="1510" width="98" height="40" as="geometry" />
        </mxCell>
        <mxCell id="hYy_9Ryrg1myL5dYlOFF-122" value="Wiler&lt;br&gt;Zeitung" style="rounded=1;whiteSpace=wrap;html=1;" parent="1" vertex="1">
          <mxGeometry x="2512" y="1510" width="98" height="40" as="geometry" />
        </mxCell>
        <mxCell id="hYy_9Ryrg1myL5dYlOFF-123" value="Zuger&lt;br&gt;Zeitung" style="rounded=1;whiteSpace=wrap;html=1;" parent="1" vertex="1">
          <mxGeometry x="2393" y="1570" width="98" height="40" as="geometry" />
        </mxCell>
        <mxCell id="hYy_9Ryrg1myL5dYlOFF-124" value="Solothurner&lt;br&gt;Zeitung" style="rounded=1;whiteSpace=wrap;html=1;" parent="1" vertex="1">
          <mxGeometry x="2512" y="1390" width="98" height="40" as="geometry" />
        </mxCell>
        <mxCell id="hYy_9Ryrg1myL5dYlOFF-141" value="Elektrotechnik&lt;br&gt;ET" style="rounded=1;whiteSpace=wrap;html=1;" parent="1" vertex="1">
          <mxGeometry x="2499" y="810" width="98" height="40" as="geometry" />
        </mxCell>
        <mxCell id="hYy_9Ryrg1myL5dYlOFF-142" value="HK-&lt;br&gt;Gebäudetechnik" style="rounded=1;whiteSpace=wrap;html=1;" parent="1" vertex="1">
          <mxGeometry x="2499" y="865" width="98" height="40" as="geometry" />
        </mxCell>
        <mxCell id="hYy_9Ryrg1myL5dYlOFF-143" value="natürlich" style="rounded=1;whiteSpace=wrap;html=1;" parent="1" vertex="1">
          <mxGeometry x="2499" y="920" width="98" height="40" as="geometry" />
        </mxCell>
        <mxCell id="hYy_9Ryrg1myL5dYlOFF-145" value="FIT for&lt;br&gt;LIFE" style="rounded=1;whiteSpace=wrap;html=1;" parent="1" vertex="1">
          <mxGeometry x="2619" y="810" width="98" height="40" as="geometry" />
        </mxCell>
        <mxCell id="hYy_9Ryrg1myL5dYlOFF-146" value="KOCHEN&lt;br&gt;(Wildeisen.ch)" style="rounded=1;whiteSpace=wrap;html=1;" parent="1" vertex="1">
          <mxGeometry x="2619" y="865" width="98" height="40" as="geometry" />
        </mxCell>
        <mxCell id="hYy_9Ryrg1myL5dYlOFF-147" value="planer+&lt;br&gt;installateur" style="rounded=1;whiteSpace=wrap;html=1;" parent="1" vertex="1">
          <mxGeometry x="2619" y="920" width="98" height="40" as="geometry" />
        </mxCell>
        <mxCell id="hYy_9Ryrg1myL5dYlOFF-148" value="wir eltern" style="rounded=1;whiteSpace=wrap;html=1;" parent="1" vertex="1">
          <mxGeometry x="2499" y="975" width="98" height="40" as="geometry" />
        </mxCell>
        <mxCell id="hYy_9Ryrg1myL5dYlOFF-149" value="Wohnrevue" style="rounded=1;whiteSpace=wrap;html=1;" parent="1" vertex="1">
          <mxGeometry x="2619" y="975" width="98" height="40" as="geometry" />
        </mxCell>
        <mxCell id="hYy_9Ryrg1myL5dYlOFF-150" value="Friscaldo&lt;br style=&quot;font-size: 10px;&quot;&gt;(Gebäudetechnik.ch)" style="rounded=1;whiteSpace=wrap;html=1;fontSize=10;" parent="1" vertex="1">
          <mxGeometry x="2739" y="810" width="98" height="40" as="geometry" />
        </mxCell>
        <mxCell id="hYy_9Ryrg1myL5dYlOFF-151" value="&lt;div&gt;&lt;span&gt;Modulor&lt;/span&gt;&lt;/div&gt;" style="rounded=1;whiteSpace=wrap;html=1;" parent="1" vertex="1">
          <mxGeometry x="2739" y="865" width="98" height="40" as="geometry" />
        </mxCell>
        <mxCell id="hYy_9Ryrg1myL5dYlOFF-152" value="Textilrevue" style="rounded=1;whiteSpace=wrap;html=1;" parent="1" vertex="1">
          <mxGeometry x="2739" y="920" width="98" height="40" as="geometry" />
        </mxCell>
        <mxCell id="hYy_9Ryrg1myL5dYlOFF-159" value="&lt;div&gt;&lt;span&gt;4+&lt;/span&gt;&lt;/div&gt;" style="rounded=1;whiteSpace=wrap;html=1;" parent="1" vertex="1">
          <mxGeometry x="2688" y="1265" width="98" height="40" as="geometry" />
        </mxCell>
        <mxCell id="hYy_9Ryrg1myL5dYlOFF-160" value="&lt;div&gt;&lt;span&gt;3+&lt;/span&gt;&lt;/div&gt;" style="rounded=1;whiteSpace=wrap;html=1;" parent="1" vertex="1">
          <mxGeometry x="2688" y="1210" width="98" height="40" as="geometry" />
        </mxCell>
        <mxCell id="hYy_9Ryrg1myL5dYlOFF-161" value="&lt;div&gt;&lt;span&gt;5+&lt;/span&gt;&lt;/div&gt;" style="rounded=1;whiteSpace=wrap;html=1;" parent="1" vertex="1">
          <mxGeometry x="2688" y="1321" width="98" height="40" as="geometry" />
        </mxCell>
        <mxCell id="hYy_9Ryrg1myL5dYlOFF-162" value="&lt;div&gt;&lt;span&gt;6+&lt;/span&gt;&lt;/div&gt;" style="rounded=1;whiteSpace=wrap;html=1;" parent="1" vertex="1">
          <mxGeometry x="2688" y="1380" width="98" height="40" as="geometry" />
        </mxCell>
        <mxCell id="hYy_9Ryrg1myL5dYlOFF-163" value="S1 - TV" style="rounded=1;whiteSpace=wrap;html=1;" parent="1" vertex="1">
          <mxGeometry x="2798" y="1210" width="98" height="40" as="geometry" />
        </mxCell>
        <mxCell id="hYy_9Ryrg1myL5dYlOFF-164" value="&lt;div&gt;&lt;span&gt;Impuls&lt;/span&gt;&lt;/div&gt;&lt;div&gt;&lt;span&gt;Pictures&lt;/span&gt;&lt;/div&gt;" style="rounded=1;whiteSpace=wrap;html=1;" parent="1" vertex="1">
          <mxGeometry x="3018" y="1210" width="98" height="40" as="geometry" />
        </mxCell>
        <mxCell id="hYy_9Ryrg1myL5dYlOFF-165" value="&lt;div&gt;&lt;span&gt;Tele 1&lt;/span&gt;&lt;/div&gt;" style="rounded=1;whiteSpace=wrap;html=1;" parent="1" vertex="1">
          <mxGeometry x="2798" y="1266" width="98" height="40" as="geometry" />
        </mxCell>
        <mxCell id="hYy_9Ryrg1myL5dYlOFF-166" value="&lt;div&gt;&lt;span&gt;Tele M1&lt;/span&gt;&lt;/div&gt;" style="rounded=1;whiteSpace=wrap;html=1;" parent="1" vertex="1">
          <mxGeometry x="2798" y="1325" width="98" height="40" as="geometry" />
        </mxCell>
        <mxCell id="hYy_9Ryrg1myL5dYlOFF-167" value="&lt;div&gt;TeleBärn&lt;/div&gt;" style="rounded=1;whiteSpace=wrap;html=1;" parent="1" vertex="1">
          <mxGeometry x="2798" y="1380" width="98" height="40" as="geometry" />
        </mxCell>
        <mxCell id="hYy_9Ryrg1myL5dYlOFF-168" value="&lt;div&gt;&lt;span&gt;Tele Regio&lt;/span&gt;&lt;/div&gt;&lt;div&gt;&lt;span&gt;Combi&lt;/span&gt;&lt;/div&gt;" style="rounded=1;whiteSpace=wrap;html=1;" parent="1" vertex="1">
          <mxGeometry x="3018" y="1266" width="98" height="40" as="geometry" />
        </mxCell>
        <mxCell id="hYy_9Ryrg1myL5dYlOFF-169" value="TeleZüri" style="rounded=1;whiteSpace=wrap;html=1;" parent="1" vertex="1">
          <mxGeometry x="2908" y="1210" width="98" height="40" as="geometry" />
        </mxCell>
        <mxCell id="hYy_9Ryrg1myL5dYlOFF-170" value="TV24" style="rounded=1;whiteSpace=wrap;html=1;" parent="1" vertex="1">
          <mxGeometry x="2908" y="1266" width="98" height="40" as="geometry" />
        </mxCell>
        <mxCell id="hYy_9Ryrg1myL5dYlOFF-171" value="TV25" style="rounded=1;whiteSpace=wrap;html=1;" parent="1" vertex="1">
          <mxGeometry x="2908" y="1325" width="98" height="40" as="geometry" />
        </mxCell>
        <mxCell id="hYy_9Ryrg1myL5dYlOFF-172" value="TVO" style="rounded=1;whiteSpace=wrap;html=1;" parent="1" vertex="1">
          <mxGeometry x="2908" y="1380" width="98" height="40" as="geometry" />
        </mxCell>
        <mxCell id="hYy_9Ryrg1myL5dYlOFF-57" value="Architonic" style="rounded=1;whiteSpace=wrap;html=1;" parent="1" vertex="1">
          <mxGeometry x="1944" y="968.5" width="98" height="40" as="geometry" />
        </mxCell>
        <mxCell id="hYy_9Ryrg1myL5dYlOFF-196" style="edgeStyle=elbowEdgeStyle;orthogonalLoop=1;jettySize=auto;elbow=vertical;html=1;endArrow=none;endFill=0;fontSize=10;" parent="1" source="hYy_9Ryrg1myL5dYlOFF-185" target="hYy_9Ryrg1myL5dYlOFF-191" edge="1">
          <mxGeometry relative="1" as="geometry">
            <Array as="points">
              <mxPoint x="3072" y="760" />
            </Array>
          </mxGeometry>
        </mxCell>
        <mxCell id="hYy_9Ryrg1myL5dYlOFF-197" style="edgeStyle=elbowEdgeStyle;orthogonalLoop=1;jettySize=auto;elbow=vertical;html=1;entryX=0.5;entryY=0;entryDx=0;entryDy=0;endArrow=none;endFill=0;fontSize=10;" parent="1" source="hYy_9Ryrg1myL5dYlOFF-185" target="hYy_9Ryrg1myL5dYlOFF-194" edge="1">
          <mxGeometry relative="1" as="geometry">
            <Array as="points">
              <mxPoint x="3072" y="760" />
            </Array>
          </mxGeometry>
        </mxCell>
        <mxCell id="hYy_9Ryrg1myL5dYlOFF-198" style="edgeStyle=elbowEdgeStyle;orthogonalLoop=1;jettySize=auto;elbow=vertical;html=1;entryX=0.5;entryY=0;entryDx=0;entryDy=0;endArrow=none;endFill=0;fontSize=10;" parent="1" source="hYy_9Ryrg1myL5dYlOFF-185" target="hYy_9Ryrg1myL5dYlOFF-188" edge="1">
          <mxGeometry relative="1" as="geometry">
            <Array as="points">
              <mxPoint x="3072" y="760" />
            </Array>
          </mxGeometry>
        </mxCell>
        <mxCell id="hYy_9Ryrg1myL5dYlOFF-199" style="edgeStyle=elbowEdgeStyle;orthogonalLoop=1;jettySize=auto;elbow=vertical;html=1;entryX=0.5;entryY=0;entryDx=0;entryDy=0;endArrow=none;endFill=0;fontSize=10;" parent="1" source="hYy_9Ryrg1myL5dYlOFF-185" target="hYy_9Ryrg1myL5dYlOFF-192" edge="1">
          <mxGeometry relative="1" as="geometry">
            <Array as="points">
              <mxPoint x="3072" y="760" />
            </Array>
          </mxGeometry>
        </mxCell>
        <mxCell id="hYy_9Ryrg1myL5dYlOFF-185" value="&lt;font style=&quot;font-size: 12px&quot;&gt;Radio&lt;/font&gt;" style="rounded=1;whiteSpace=wrap;html=1;strokeWidth=1;shadow=0;sketch=1;glass=1;dashed=1;strokeColor=#5E5E5E;" parent="1" vertex="1">
          <mxGeometry x="2992" y="680" width="160" height="40" as="geometry" />
        </mxCell>
        <mxCell id="hYy_9Ryrg1myL5dYlOFF-188" value="Radio 24" style="rounded=1;whiteSpace=wrap;html=1;" parent="1" vertex="1">
          <mxGeometry x="2968" y="810" width="98" height="40" as="geometry" />
        </mxCell>
        <mxCell id="hYy_9Ryrg1myL5dYlOFF-189" value="&lt;div&gt;&lt;span&gt;Radio Argovia&lt;/span&gt;&lt;/div&gt;" style="rounded=1;whiteSpace=wrap;html=1;" parent="1" vertex="1">
          <mxGeometry x="2968" y="866" width="98" height="40" as="geometry" />
        </mxCell>
        <mxCell id="hYy_9Ryrg1myL5dYlOFF-190" value="&lt;div&gt;&lt;span&gt;Radio Melody&lt;/span&gt;&lt;/div&gt;" style="rounded=1;whiteSpace=wrap;html=1;" parent="1" vertex="1">
          <mxGeometry x="2968" y="925" width="98" height="40" as="geometry" />
        </mxCell>
        <mxCell id="hYy_9Ryrg1myL5dYlOFF-191" value="&lt;div&gt;Virgin Radio&lt;/div&gt;" style="rounded=1;whiteSpace=wrap;html=1;" parent="1" vertex="1">
          <mxGeometry x="2968" y="980" width="98" height="40" as="geometry" />
        </mxCell>
        <mxCell id="hYy_9Ryrg1myL5dYlOFF-192" value="Radio 32" style="rounded=1;whiteSpace=wrap;html=1;" parent="1" vertex="1">
          <mxGeometry x="3078" y="810" width="98" height="40" as="geometry" />
        </mxCell>
        <mxCell id="hYy_9Ryrg1myL5dYlOFF-193" value="Radio FM1" style="rounded=1;whiteSpace=wrap;html=1;" parent="1" vertex="1">
          <mxGeometry x="3078" y="866" width="98" height="40" as="geometry" />
        </mxCell>
        <mxCell id="hYy_9Ryrg1myL5dYlOFF-194" value="Radio Pilatus" style="rounded=1;whiteSpace=wrap;html=1;" parent="1" vertex="1">
          <mxGeometry x="3078" y="925" width="98" height="40" as="geometry" />
        </mxCell>
        <mxCell id="hYy_9Ryrg1myL5dYlOFF-207" style="edgeStyle=elbowEdgeStyle;orthogonalLoop=1;jettySize=auto;elbow=vertical;html=1;endArrow=none;endFill=0;fontSize=10;entryX=0.5;entryY=0;entryDx=0;entryDy=0;" parent="1" source="hYy_9Ryrg1myL5dYlOFF-200" target="hYy_9Ryrg1myL5dYlOFF-211" edge="1">
          <mxGeometry relative="1" as="geometry">
            <Array as="points">
              <mxPoint x="3280" y="1160" />
            </Array>
          </mxGeometry>
        </mxCell>
        <mxCell id="hYy_9Ryrg1myL5dYlOFF-208" style="edgeStyle=elbowEdgeStyle;orthogonalLoop=1;jettySize=auto;elbow=vertical;html=1;entryX=0.5;entryY=0;entryDx=0;entryDy=0;endArrow=none;endFill=0;fontSize=10;" parent="1" source="hYy_9Ryrg1myL5dYlOFF-200" target="hYy_9Ryrg1myL5dYlOFF-214" edge="1">
          <mxGeometry relative="1" as="geometry">
            <Array as="points">
              <mxPoint x="3280" y="1160" />
            </Array>
          </mxGeometry>
        </mxCell>
        <mxCell id="hYy_9Ryrg1myL5dYlOFF-200" value="Anzeiger" style="rounded=1;whiteSpace=wrap;html=1;strokeWidth=1;shadow=0;sketch=1;glass=1;dashed=1;strokeColor=#5E5E5E;" parent="1" vertex="1">
          <mxGeometry x="3200" y="1080" width="160" height="40" as="geometry" />
        </mxCell>
        <mxCell id="hYy_9Ryrg1myL5dYlOFF-201" value="Anzeiger&lt;br&gt;Affoltern" style="rounded=1;whiteSpace=wrap;html=1;" parent="1" vertex="1">
          <mxGeometry x="3176" y="1207.5" width="98" height="40" as="geometry" />
        </mxCell>
        <mxCell id="hYy_9Ryrg1myL5dYlOFF-202" value="&lt;div&gt;&lt;span&gt;Grenchner&lt;/span&gt;&lt;/div&gt;&lt;div&gt;Stadt-Anzeiger&lt;/div&gt;" style="rounded=1;whiteSpace=wrap;html=1;" parent="1" vertex="1">
          <mxGeometry x="3176" y="1263.5" width="98" height="40" as="geometry" />
        </mxCell>
        <mxCell id="hYy_9Ryrg1myL5dYlOFF-203" value="&lt;div&gt;&lt;span&gt;Lenzburger&lt;/span&gt;&lt;/div&gt;&lt;div&gt;&lt;span&gt;Anzeiger&lt;/span&gt;&lt;/div&gt;" style="rounded=1;whiteSpace=wrap;html=1;" parent="1" vertex="1">
          <mxGeometry x="3176" y="1322.5" width="98" height="40" as="geometry" />
        </mxCell>
        <mxCell id="hYy_9Ryrg1myL5dYlOFF-204" value="Anzeiger&lt;br&gt;Luzern" style="rounded=1;whiteSpace=wrap;html=1;" parent="1" vertex="1">
          <mxGeometry x="3286" y="1207.5" width="98" height="40" as="geometry" />
        </mxCell>
        <mxCell id="hYy_9Ryrg1myL5dYlOFF-205" value="Anzeiger&lt;br&gt;(Solöthurn)" style="rounded=1;whiteSpace=wrap;html=1;" parent="1" vertex="1">
          <mxGeometry x="3286" y="1263.5" width="98" height="40" as="geometry" />
        </mxCell>
        <mxCell id="hYy_9Ryrg1myL5dYlOFF-206" value="Wochenzeitung&lt;br&gt;Limmatwelle" style="rounded=1;whiteSpace=wrap;html=1;" parent="1" vertex="1">
          <mxGeometry x="3286" y="1322.5" width="98" height="40" as="geometry" />
        </mxCell>
        <mxCell id="hYy_9Ryrg1myL5dYlOFF-209" value="Oberbaselbieter&lt;br&gt;Zeitung" style="rounded=1;whiteSpace=wrap;html=1;" parent="1" vertex="1">
          <mxGeometry x="3176" y="1375" width="98" height="40" as="geometry" />
        </mxCell>
        <mxCell id="hYy_9Ryrg1myL5dYlOFF-210" value="&lt;div&gt;Wochenblatt&lt;/div&gt;&lt;div&gt;Birseck/Dorneck&lt;/div&gt;" style="rounded=1;whiteSpace=wrap;html=1;" parent="1" vertex="1">
          <mxGeometry x="3176" y="1431" width="98" height="40" as="geometry" />
        </mxCell>
        <mxCell id="hYy_9Ryrg1myL5dYlOFF-211" value="&lt;div&gt;Zuger&lt;/div&gt;&lt;div&gt;Presse&lt;/div&gt;" style="rounded=1;whiteSpace=wrap;html=1;" parent="1" vertex="1">
          <mxGeometry x="3176" y="1490" width="98" height="40" as="geometry" />
        </mxCell>
        <mxCell id="hYy_9Ryrg1myL5dYlOFF-212" value="Stadtanzeiger&lt;br&gt;Olten" style="rounded=1;whiteSpace=wrap;html=1;" parent="1" vertex="1">
          <mxGeometry x="3286" y="1375" width="98" height="40" as="geometry" />
        </mxCell>
        <mxCell id="hYy_9Ryrg1myL5dYlOFF-213" value="Wochenblatt&lt;br&gt;Laufental" style="rounded=1;whiteSpace=wrap;html=1;" parent="1" vertex="1">
          <mxGeometry x="3286" y="1431" width="98" height="40" as="geometry" />
        </mxCell>
        <mxCell id="hYy_9Ryrg1myL5dYlOFF-214" value="Zugerbieter" style="rounded=1;whiteSpace=wrap;html=1;" parent="1" vertex="1">
          <mxGeometry x="3286" y="1490" width="98" height="40" as="geometry" />
        </mxCell>
        <mxCell id="hYy_9Ryrg1myL5dYlOFF-227" value="Trauerportal&lt;br&gt;Ostschweiz" style="rounded=1;whiteSpace=wrap;html=1;" parent="1" vertex="1">
          <mxGeometry x="3604" y="975" width="98" height="40" as="geometry" />
        </mxCell>
        <mxCell id="hYy_9Ryrg1myL5dYlOFF-229" style="edgeStyle=elbowEdgeStyle;orthogonalLoop=1;jettySize=auto;elbow=vertical;html=1;entryX=0.5;entryY=0;entryDx=0;entryDy=0;endArrow=none;endFill=0;fontSize=10;" parent="1" source="hYy_9Ryrg1myL5dYlOFF-228" target="hYy_9Ryrg1myL5dYlOFF-234" edge="1">
          <mxGeometry relative="1" as="geometry" />
        </mxCell>
        <mxCell id="hYy_9Ryrg1myL5dYlOFF-230" style="edgeStyle=elbowEdgeStyle;orthogonalLoop=1;jettySize=auto;elbow=vertical;html=1;entryX=0.5;entryY=0;entryDx=0;entryDy=0;endArrow=none;endFill=0;fontSize=10;" parent="1" source="hYy_9Ryrg1myL5dYlOFF-228" target="hYy_9Ryrg1myL5dYlOFF-233" edge="1">
          <mxGeometry relative="1" as="geometry">
            <Array as="points">
              <mxPoint x="3543" y="760" />
            </Array>
          </mxGeometry>
        </mxCell>
        <mxCell id="hYy_9Ryrg1myL5dYlOFF-231" style="edgeStyle=elbowEdgeStyle;orthogonalLoop=1;jettySize=auto;elbow=vertical;html=1;endArrow=none;endFill=0;fontSize=10;entryX=0.5;entryY=0;entryDx=0;entryDy=0;" parent="1" source="hYy_9Ryrg1myL5dYlOFF-228" target="hYy_9Ryrg1myL5dYlOFF-227" edge="1">
          <mxGeometry relative="1" as="geometry">
            <mxPoint x="3653" y="980" as="targetPoint" />
            <Array as="points">
              <mxPoint x="3543" y="760" />
            </Array>
          </mxGeometry>
        </mxCell>
        <mxCell id="hYy_9Ryrg1myL5dYlOFF-228" value="Platformen" style="rounded=1;whiteSpace=wrap;html=1;strokeWidth=1;shadow=0;sketch=1;glass=1;dashed=1;strokeColor=#5E5E5E;" parent="1" vertex="1">
          <mxGeometry x="3463" y="680" width="160" height="40" as="geometry" />
        </mxCell>
        <mxCell id="hYy_9Ryrg1myL5dYlOFF-216" value="amtliche-&lt;br&gt;nachrichten.ch" style="rounded=1;whiteSpace=wrap;html=1;" parent="1" vertex="1">
          <mxGeometry x="3384" y="807.5" width="98" height="40" as="geometry" />
        </mxCell>
        <mxCell id="hYy_9Ryrg1myL5dYlOFF-217" value="&lt;div&gt;Grips.ch&lt;/div&gt;" style="rounded=1;whiteSpace=wrap;html=1;" parent="1" vertex="1">
          <mxGeometry x="3384" y="863.5" width="98" height="40" as="geometry" />
        </mxCell>
        <mxCell id="hYy_9Ryrg1myL5dYlOFF-218" value="&lt;div&gt;osthome.ch&lt;/div&gt;" style="rounded=1;whiteSpace=wrap;html=1;" parent="1" vertex="1">
          <mxGeometry x="3384" y="922.5" width="98" height="40" as="geometry" />
        </mxCell>
        <mxCell id="hYy_9Ryrg1myL5dYlOFF-219" value="fm1today.ch" style="rounded=1;whiteSpace=wrap;html=1;" parent="1" vertex="1">
          <mxGeometry x="3494" y="807.5" width="98" height="40" as="geometry" />
        </mxCell>
        <mxCell id="hYy_9Ryrg1myL5dYlOFF-220" value="myimmofinder.ch" style="rounded=1;whiteSpace=wrap;html=1;" parent="1" vertex="1">
          <mxGeometry x="3494" y="863.5" width="98" height="40" as="geometry" />
        </mxCell>
        <mxCell id="hYy_9Ryrg1myL5dYlOFF-221" value="ostjob.ch" style="rounded=1;whiteSpace=wrap;html=1;" parent="1" vertex="1">
          <mxGeometry x="3494" y="922.5" width="98" height="40" as="geometry" />
        </mxCell>
        <mxCell id="hYy_9Ryrg1myL5dYlOFF-224" value="Gedenkzeit.ch" style="rounded=1;whiteSpace=wrap;html=1;" parent="1" vertex="1">
          <mxGeometry x="3604" y="807.5" width="98" height="40" as="geometry" />
        </mxCell>
        <mxCell id="hYy_9Ryrg1myL5dYlOFF-225" value="myjob.ch" style="rounded=1;whiteSpace=wrap;html=1;" parent="1" vertex="1">
          <mxGeometry x="3604" y="863.5" width="98" height="40" as="geometry" />
        </mxCell>
        <mxCell id="hYy_9Ryrg1myL5dYlOFF-226" value="Petitio.ch" style="rounded=1;whiteSpace=wrap;html=1;" parent="1" vertex="1">
          <mxGeometry x="3604" y="922.5" width="98" height="40" as="geometry" />
        </mxCell>
        <mxCell id="hYy_9Ryrg1myL5dYlOFF-233" value="zentralhome.ch" style="rounded=1;whiteSpace=wrap;html=1;" parent="1" vertex="1">
          <mxGeometry x="3384" y="1029" width="98" height="40" as="geometry" />
        </mxCell>
        <mxCell id="hYy_9Ryrg1myL5dYlOFF-234" value="zentraljob.ch" style="rounded=1;whiteSpace=wrap;html=1;" parent="1" vertex="1">
          <mxGeometry x="3494" y="1029" width="98" height="40" as="geometry" />
        </mxCell>
        <mxCell id="hYy_9Ryrg1myL5dYlOFF-223" value="Tagblatt.ch" style="rounded=1;whiteSpace=wrap;html=1;" parent="1" vertex="1">
          <mxGeometry x="3494" y="975" width="98" height="40" as="geometry" />
        </mxCell>
        <mxCell id="hYy_9Ryrg1myL5dYlOFF-222" value="pilatustoday.ch" style="rounded=1;whiteSpace=wrap;html=1;" parent="1" vertex="1">
          <mxGeometry x="3384" y="975" width="98" height="40" as="geometry" />
        </mxCell>
        <mxCell id="hYy_9Ryrg1myL5dYlOFF-241" style="edgeStyle=elbowEdgeStyle;orthogonalLoop=1;jettySize=auto;elbow=vertical;html=1;endArrow=none;endFill=0;fontSize=10;" parent="1" source="hYy_9Ryrg1myL5dYlOFF-236" target="hYy_9Ryrg1myL5dYlOFF-238" edge="1">
          <mxGeometry relative="1" as="geometry">
            <Array as="points">
              <mxPoint x="3740" y="1150" />
            </Array>
          </mxGeometry>
        </mxCell>
        <mxCell id="hYy_9Ryrg1myL5dYlOFF-242" style="edgeStyle=elbowEdgeStyle;orthogonalLoop=1;jettySize=auto;elbow=vertical;html=1;endArrow=none;endFill=0;fontSize=10;" parent="1" source="hYy_9Ryrg1myL5dYlOFF-236" target="hYy_9Ryrg1myL5dYlOFF-240" edge="1">
          <mxGeometry relative="1" as="geometry">
            <Array as="points">
              <mxPoint x="3740" y="1150" />
            </Array>
          </mxGeometry>
        </mxCell>
        <mxCell id="hYy_9Ryrg1myL5dYlOFF-236" value="Sonstiges" style="rounded=1;whiteSpace=wrap;html=1;strokeWidth=1;shadow=0;sketch=1;glass=1;dashed=1;strokeColor=#5E5E5E;" parent="1" vertex="1">
          <mxGeometry x="3660" y="1080" width="160" height="40" as="geometry" />
        </mxCell>
        <mxCell id="hYy_9Ryrg1myL5dYlOFF-237" value="CH Media&lt;br&gt;Print" style="rounded=1;whiteSpace=wrap;html=1;" parent="1" vertex="1">
          <mxGeometry x="3636" y="1207.5" width="98" height="40" as="geometry" />
        </mxCell>
        <mxCell id="hYy_9Ryrg1myL5dYlOFF-238" value="&lt;div&gt;AZ Vertrieb&lt;/div&gt;" style="rounded=1;whiteSpace=wrap;html=1;" parent="1" vertex="1">
          <mxGeometry x="3636" y="1263.5" width="98" height="40" as="geometry" />
        </mxCell>
        <mxCell id="hYy_9Ryrg1myL5dYlOFF-239" value="Vogt-Schild&lt;br&gt;Druck" style="rounded=1;whiteSpace=wrap;html=1;" parent="1" vertex="1">
          <mxGeometry x="3746" y="1207.5" width="98" height="40" as="geometry" />
        </mxCell>
        <mxCell id="hYy_9Ryrg1myL5dYlOFF-240" value="VS Vertrieb" style="rounded=1;whiteSpace=wrap;html=1;" parent="1" vertex="1">
          <mxGeometry x="3746" y="1263.5" width="98" height="40" as="geometry" />
        </mxCell>
      </root>
    </mxGraphModel>
  </diagram>
</mxfile>
